<svg xmlns="http://www.w3.org/2000/svg" xmlns:xlink="http://www.w3.org/1999/xlink" width="260" zoomAndPan="magnify" viewBox="0 0 194.87999 36.000001" height="48" preserveAspectRatio="xMidYMid meet" version="1.0"><defs><g/><clipPath id="942dcec847"><path d="M 2.574219 0 L 192.1875 0 L 192.1875 35.027344 L 2.574219 35.027344 Z M 2.574219 0 " clip-rule="nonzero"/></clipPath><clipPath id="27b6c45861"><path d="M 5.132812 1.1875 L 37.238281 1.1875 L 37.238281 33.296875 L 5.132812 33.296875 Z M 5.132812 1.1875 " clip-rule="nonzero"/></clipPath><clipPath id="b77b588765"><path d="M 37.445312 17.34375 C 37.445312 17.875 37.417969 18.402344 37.367188 18.929688 C 37.316406 19.457031 37.238281 19.976562 37.132812 20.496094 C 37.03125 21.015625 36.902344 21.527344 36.75 22.035156 C 36.59375 22.542969 36.417969 23.039062 36.214844 23.527344 C 36.011719 24.015625 35.785156 24.496094 35.535156 24.960938 C 35.285156 25.429688 35.015625 25.882812 34.722656 26.320312 C 34.425781 26.761719 34.113281 27.1875 33.777344 27.59375 C 33.441406 28.003906 33.085938 28.394531 32.710938 28.769531 C 32.339844 29.144531 31.945312 29.5 31.539062 29.835938 C 31.128906 30.171875 30.703125 30.484375 30.265625 30.777344 C 29.824219 31.074219 29.371094 31.34375 28.902344 31.59375 C 28.4375 31.84375 27.960938 32.070312 27.46875 32.273438 C 26.980469 32.472656 26.484375 32.652344 25.976562 32.804688 C 25.472656 32.960938 24.957031 33.089844 24.441406 33.191406 C 23.921875 33.292969 23.398438 33.371094 22.871094 33.425781 C 22.34375 33.476562 21.816406 33.5 21.289062 33.5 C 20.757812 33.5 20.230469 33.476562 19.703125 33.425781 C 19.175781 33.371094 18.65625 33.292969 18.136719 33.191406 C 17.617188 33.089844 17.105469 32.960938 16.597656 32.804688 C 16.089844 32.652344 15.59375 32.472656 15.105469 32.273438 C 14.617188 32.070312 14.136719 31.84375 13.671875 31.59375 C 13.203125 31.34375 12.75 31.074219 12.3125 30.777344 C 11.871094 30.484375 11.445312 30.171875 11.039062 29.835938 C 10.628906 29.5 10.238281 29.144531 9.863281 28.769531 C 9.488281 28.394531 9.132812 28.003906 8.796875 27.59375 C 8.460938 27.1875 8.148438 26.761719 7.855469 26.320312 C 7.558594 25.882812 7.289062 25.429688 7.039062 24.960938 C 6.789062 24.496094 6.5625 24.015625 6.359375 23.527344 C 6.160156 23.039062 5.980469 22.542969 5.828125 22.035156 C 5.671875 21.527344 5.542969 21.015625 5.441406 20.496094 C 5.339844 19.976562 5.261719 19.457031 5.207031 18.929688 C 5.15625 18.402344 5.132812 17.875 5.132812 17.34375 C 5.132812 16.816406 5.15625 16.289062 5.207031 15.761719 C 5.261719 15.234375 5.339844 14.710938 5.441406 14.191406 C 5.542969 13.675781 5.671875 13.160156 5.828125 12.65625 C 5.980469 12.148438 6.160156 11.652344 6.359375 11.160156 C 6.5625 10.671875 6.789062 10.195312 7.039062 9.730469 C 7.289062 9.261719 7.558594 8.808594 7.855469 8.367188 C 8.148438 7.929688 8.460938 7.503906 8.796875 7.09375 C 9.132812 6.6875 9.488281 6.292969 9.863281 5.921875 C 10.238281 5.546875 10.628906 5.191406 11.039062 4.855469 C 11.445312 4.519531 11.871094 4.207031 12.3125 3.910156 C 12.75 3.617188 13.203125 3.34375 13.671875 3.097656 C 14.136719 2.847656 14.617188 2.621094 15.105469 2.417969 C 15.59375 2.214844 16.089844 2.039062 16.597656 1.882812 C 17.105469 1.730469 17.617188 1.601562 18.136719 1.5 C 18.65625 1.394531 19.175781 1.316406 19.703125 1.265625 C 20.230469 1.214844 20.757812 1.1875 21.289062 1.1875 C 21.816406 1.1875 22.34375 1.214844 22.871094 1.265625 C 23.398438 1.316406 23.921875 1.394531 24.441406 1.5 C 24.957031 1.601562 25.472656 1.730469 25.976562 1.882812 C 26.484375 2.039062 26.980469 2.214844 27.46875 2.417969 C 27.960938 2.621094 28.4375 2.847656 28.902344 3.097656 C 29.371094 3.34375 29.824219 3.617188 30.265625 3.910156 C 30.703125 4.207031 31.128906 4.519531 31.539062 4.855469 C 31.945312 5.191406 32.339844 5.546875 32.710938 5.921875 C 33.085938 6.292969 33.441406 6.6875 33.777344 7.09375 C 34.113281 7.503906 34.425781 7.929688 34.722656 8.367188 C 35.015625 8.808594 35.285156 9.261719 35.535156 9.730469 C 35.785156 10.195312 36.011719 10.671875 36.214844 11.160156 C 36.417969 11.652344 36.59375 12.148438 36.75 12.65625 C 36.902344 13.160156 37.03125 13.675781 37.132812 14.191406 C 37.238281 14.710938 37.316406 15.234375 37.367188 15.761719 C 37.417969 16.289062 37.445312 16.816406 37.445312 17.34375 Z M 37.445312 17.34375 " clip-rule="nonzero"/></clipPath><linearGradient x1="245.353942" gradientTransform="matrix(0.111937, 0.0646267, 0.0646267, -0.111937, -21.635477, 29.749238)" y1="424.420776" x2="233.944007" gradientUnits="userSpaceOnUse" y2="74.393969" id="0169d8b5ee"><stop stop-opacity="1" stop-color="rgb(32.199097%, 44.299316%, 100%)" offset="0"/><stop stop-opacity="1" stop-color="rgb(32.199097%, 44.299316%, 100%)" offset="0.0315683"/><stop stop-opacity="1" stop-color="rgb(32.199097%, 44.299316%, 100%)" offset="0.125"/><stop stop-opacity="1" stop-color="rgb(32.199097%, 44.299316%, 100%)" offset="0.140625"/><stop stop-opacity="1" stop-color="rgb(32.159424%, 44.403076%, 100%)" offset="0.148438"/><stop stop-opacity="1" stop-color="rgb(32.052612%, 44.685364%, 100%)" offset="0.15625"/><stop stop-opacity="1" stop-color="rgb(31.919861%, 45.039368%, 100%)" offset="0.164063"/><stop stop-opacity="1" stop-color="rgb(31.787109%, 45.394897%, 100%)" offset="0.171875"/><stop stop-opacity="1" stop-color="rgb(31.652832%, 45.748901%, 100%)" offset="0.179688"/><stop stop-opacity="1" stop-color="rgb(31.520081%, 46.102905%, 100%)" offset="0.1875"/><stop stop-opacity="1" stop-color="rgb(31.385803%, 46.456909%, 100%)" offset="0.195313"/><stop stop-opacity="1" stop-color="rgb(31.253052%, 46.810913%, 100%)" offset="0.203125"/><stop stop-opacity="1" stop-color="rgb(31.1203%, 47.164917%, 100%)" offset="0.210938"/><stop stop-opacity="1" stop-color="rgb(30.986023%, 47.520447%, 100%)" offset="0.21875"/><stop stop-opacity="1" stop-color="rgb(30.853271%, 47.874451%, 100%)" offset="0.226563"/><stop stop-opacity="1" stop-color="rgb(30.72052%, 48.228455%, 100%)" offset="0.234375"/><stop stop-opacity="1" stop-color="rgb(30.586243%, 48.582458%, 100%)" offset="0.242188"/><stop stop-opacity="1" stop-color="rgb(30.453491%, 48.936462%, 100%)" offset="0.25"/><stop stop-opacity="1" stop-color="rgb(30.319214%, 49.290466%, 100%)" offset="0.257812"/><stop stop-opacity="1" stop-color="rgb(30.186462%, 49.645996%, 100%)" offset="0.265625"/><stop stop-opacity="1" stop-color="rgb(30.053711%, 50%, 100%)" offset="0.273438"/><stop stop-opacity="1" stop-color="rgb(29.919434%, 50.354004%, 100%)" offset="0.28125"/><stop stop-opacity="1" stop-color="rgb(29.786682%, 50.708008%, 100%)" offset="0.289062"/><stop stop-opacity="1" stop-color="rgb(29.652405%, 51.062012%, 100%)" offset="0.296875"/><stop stop-opacity="1" stop-color="rgb(29.519653%, 51.416016%, 100%)" offset="0.304688"/><stop stop-opacity="1" stop-color="rgb(29.386902%, 51.771545%, 100%)" offset="0.3125"/><stop stop-opacity="1" stop-color="rgb(29.252625%, 52.125549%, 100%)" offset="0.320312"/><stop stop-opacity="1" stop-color="rgb(29.119873%, 52.479553%, 100%)" offset="0.328125"/><stop stop-opacity="1" stop-color="rgb(28.987122%, 52.833557%, 100%)" offset="0.335938"/><stop stop-opacity="1" stop-color="rgb(28.852844%, 53.187561%, 100%)" offset="0.34375"/><stop stop-opacity="1" stop-color="rgb(28.720093%, 53.541565%, 100%)" offset="0.351562"/><stop stop-opacity="1" stop-color="rgb(28.585815%, 53.897095%, 100%)" offset="0.359375"/><stop stop-opacity="1" stop-color="rgb(28.453064%, 54.251099%, 100%)" offset="0.367188"/><stop stop-opacity="1" stop-color="rgb(28.320312%, 54.605103%, 100%)" offset="0.375"/><stop stop-opacity="1" stop-color="rgb(28.186035%, 54.959106%, 100%)" offset="0.382812"/><stop stop-opacity="1" stop-color="rgb(28.053284%, 55.31311%, 100%)" offset="0.390625"/><stop stop-opacity="1" stop-color="rgb(27.920532%, 55.667114%, 100%)" offset="0.398438"/><stop stop-opacity="1" stop-color="rgb(27.786255%, 56.022644%, 100%)" offset="0.40625"/><stop stop-opacity="1" stop-color="rgb(27.653503%, 56.376648%, 100%)" offset="0.414062"/><stop stop-opacity="1" stop-color="rgb(27.519226%, 56.730652%, 100%)" offset="0.421875"/><stop stop-opacity="1" stop-color="rgb(27.386475%, 57.084656%, 100%)" offset="0.429688"/><stop stop-opacity="1" stop-color="rgb(27.253723%, 57.43866%, 100%)" offset="0.4375"/><stop stop-opacity="1" stop-color="rgb(27.119446%, 57.792664%, 100%)" offset="0.445312"/><stop stop-opacity="1" stop-color="rgb(26.986694%, 58.148193%, 100%)" offset="0.453125"/><stop stop-opacity="1" stop-color="rgb(26.852417%, 58.502197%, 100%)" offset="0.460937"/><stop stop-opacity="1" stop-color="rgb(26.719666%, 58.856201%, 100%)" offset="0.46875"/><stop stop-opacity="1" stop-color="rgb(26.586914%, 59.210205%, 100%)" offset="0.476563"/><stop stop-opacity="1" stop-color="rgb(26.452637%, 59.564209%, 100%)" offset="0.484375"/><stop stop-opacity="1" stop-color="rgb(26.319885%, 59.918213%, 100%)" offset="0.492188"/><stop stop-opacity="1" stop-color="rgb(26.187134%, 60.273743%, 100%)" offset="0.5"/><stop stop-opacity="1" stop-color="rgb(26.052856%, 60.627747%, 100%)" offset="0.507812"/><stop stop-opacity="1" stop-color="rgb(25.920105%, 60.98175%, 100%)" offset="0.515625"/><stop stop-opacity="1" stop-color="rgb(25.785828%, 61.335754%, 100%)" offset="0.523438"/><stop stop-opacity="1" stop-color="rgb(25.653076%, 61.689758%, 100%)" offset="0.53125"/><stop stop-opacity="1" stop-color="rgb(25.520325%, 62.043762%, 100%)" offset="0.539062"/><stop stop-opacity="1" stop-color="rgb(25.386047%, 62.399292%, 100%)" offset="0.546875"/><stop stop-opacity="1" stop-color="rgb(25.253296%, 62.753296%, 100%)" offset="0.554688"/><stop stop-opacity="1" stop-color="rgb(25.119019%, 63.1073%, 100%)" offset="0.5625"/><stop stop-opacity="1" stop-color="rgb(24.986267%, 63.461304%, 100%)" offset="0.570312"/><stop stop-opacity="1" stop-color="rgb(24.853516%, 63.815308%, 100%)" offset="0.578125"/><stop stop-opacity="1" stop-color="rgb(24.719238%, 64.169312%, 100%)" offset="0.585938"/><stop stop-opacity="1" stop-color="rgb(24.586487%, 64.524841%, 100%)" offset="0.59375"/><stop stop-opacity="1" stop-color="rgb(24.453735%, 64.878845%, 100%)" offset="0.601562"/><stop stop-opacity="1" stop-color="rgb(24.319458%, 65.232849%, 100%)" offset="0.609375"/><stop stop-opacity="1" stop-color="rgb(24.186707%, 65.586853%, 100%)" offset="0.617188"/><stop stop-opacity="1" stop-color="rgb(24.052429%, 65.940857%, 100%)" offset="0.625"/><stop stop-opacity="1" stop-color="rgb(23.919678%, 66.294861%, 100%)" offset="0.632812"/><stop stop-opacity="1" stop-color="rgb(23.786926%, 66.650391%, 100%)" offset="0.640625"/><stop stop-opacity="1" stop-color="rgb(23.652649%, 67.004395%, 100%)" offset="0.648438"/><stop stop-opacity="1" stop-color="rgb(23.519897%, 67.358398%, 100%)" offset="0.65625"/><stop stop-opacity="1" stop-color="rgb(23.38562%, 67.712402%, 100%)" offset="0.664062"/><stop stop-opacity="1" stop-color="rgb(23.252869%, 68.066406%, 100%)" offset="0.671875"/><stop stop-opacity="1" stop-color="rgb(23.120117%, 68.42041%, 100%)" offset="0.679688"/><stop stop-opacity="1" stop-color="rgb(22.98584%, 68.77594%, 100%)" offset="0.6875"/><stop stop-opacity="1" stop-color="rgb(22.853088%, 69.129944%, 100%)" offset="0.695312"/><stop stop-opacity="1" stop-color="rgb(22.720337%, 69.483948%, 100%)" offset="0.703125"/><stop stop-opacity="1" stop-color="rgb(22.58606%, 69.837952%, 100%)" offset="0.710938"/><stop stop-opacity="1" stop-color="rgb(22.453308%, 70.191956%, 100%)" offset="0.71875"/><stop stop-opacity="1" stop-color="rgb(22.319031%, 70.545959%, 100%)" offset="0.726562"/><stop stop-opacity="1" stop-color="rgb(22.186279%, 70.901489%, 100%)" offset="0.734375"/><stop stop-opacity="1" stop-color="rgb(22.059631%, 71.238708%, 100%)" offset="0.75"/><stop stop-opacity="1" stop-color="rgb(21.998596%, 71.398926%, 100%)" offset="0.968432"/><stop stop-opacity="1" stop-color="rgb(21.998596%, 71.398926%, 100%)" offset="1"/></linearGradient><clipPath id="4e3f3edbb0"><path d="M 8.113281 4.171875 L 34.386719 4.171875 L 34.386719 30.441406 L 8.113281 30.441406 Z M 8.113281 4.171875 " clip-rule="nonzero"/></clipPath></defs><g clip-path="url(#942dcec847)"><path fill="#ffffff" d="M 2.574219 0 L 192.304688 0 L 192.304688 35.027344 L 2.574219 35.027344 Z M 2.574219 0 " fill-opacity="1" fill-rule="nonzero"/><path fill="#ffffff" d="M 2.574219 0 L 192.304688 0 L 192.304688 35.027344 L 2.574219 35.027344 Z M 2.574219 0 " fill-opacity="1" fill-rule="nonzero"/></g><g clip-path="url(#27b6c45861)"><g clip-path="url(#b77b588765)"><path fill="url(#0169d8b5ee)" d="M -8.773438 25.269531 L 13.15625 -12.714844 L 51.140625 9.214844 L 29.210938 47.199219 Z M -8.773438 25.269531 " fill-rule="nonzero"/></g></g><g clip-path="url(#4e3f3edbb0)"><path fill="#ffffff" d="M 21.289062 4.171875 C 20.425781 4.171875 19.570312 4.257812 18.71875 4.425781 C 17.871094 4.59375 17.046875 4.84375 16.25 5.175781 C 15.449219 5.507812 14.691406 5.914062 13.96875 6.394531 C 13.25 6.875 12.585938 7.417969 11.972656 8.03125 C 11.363281 8.644531 10.816406 9.308594 10.335938 10.027344 C 9.855469 10.746094 9.449219 11.507812 9.117188 12.304688 C 8.785156 13.105469 8.539062 13.929688 8.367188 14.777344 C 8.199219 15.625 8.113281 16.484375 8.113281 17.347656 C 8.113281 18.210938 8.199219 19.070312 8.367188 19.917969 C 8.539062 20.765625 8.785156 21.589844 9.117188 22.390625 C 9.449219 23.1875 9.855469 23.949219 10.335938 24.667969 C 10.816406 25.386719 11.363281 26.050781 11.972656 26.664062 C 12.585938 27.277344 13.25 27.820312 13.96875 28.300781 C 14.691406 28.78125 15.449219 29.1875 16.25 29.519531 C 17.046875 29.851562 17.871094 30.101562 18.71875 30.269531 C 19.570312 30.4375 20.425781 30.523438 21.289062 30.523438 C 22.15625 30.523438 23.011719 30.4375 23.859375 30.269531 C 24.710938 30.101562 25.53125 29.851562 26.332031 29.519531 C 27.132812 29.1875 27.890625 28.78125 28.609375 28.300781 C 29.328125 27.820312 29.996094 27.277344 30.605469 26.664062 C 31.21875 26.050781 31.765625 25.386719 32.246094 24.667969 C 32.726562 23.949219 33.132812 23.1875 33.460938 22.390625 C 33.792969 21.589844 34.042969 20.765625 34.210938 19.917969 C 34.382812 19.070312 34.464844 18.210938 34.464844 17.347656 C 34.464844 16.484375 34.382812 15.625 34.210938 14.777344 C 34.042969 13.929688 33.792969 13.105469 33.460938 12.304688 C 33.132812 11.507812 32.726562 10.746094 32.246094 10.027344 C 31.765625 9.308594 31.21875 8.644531 30.605469 8.03125 C 29.996094 7.417969 29.328125 6.875 28.609375 6.394531 C 27.890625 5.914062 27.132812 5.507812 26.332031 5.175781 C 25.53125 4.84375 24.710938 4.59375 23.859375 4.425781 C 23.011719 4.257812 22.15625 4.171875 21.289062 4.171875 Z M 23.171875 21.945312 C 23.054688 21.960938 22.9375 21.953125 22.824219 21.921875 C 22.710938 21.886719 22.609375 21.832031 22.519531 21.753906 C 22.425781 21.675781 22.359375 21.582031 22.308594 21.476562 C 22.257812 21.367188 22.230469 21.253906 22.230469 21.136719 L 22.230469 18.972656 C 22.230469 18.78125 22.289062 18.613281 22.40625 18.464844 C 22.523438 18.320312 22.671875 18.222656 22.855469 18.179688 C 23.207031 18.101562 23.527344 17.960938 23.824219 17.757812 C 24.117188 17.558594 24.367188 17.308594 24.566406 17.015625 C 24.765625 16.71875 24.90625 16.398438 24.984375 16.046875 C 25.0625 15.699219 25.074219 15.347656 25.019531 14.996094 C 24.964844 14.644531 24.847656 14.3125 24.667969 14.003906 C 24.488281 13.695312 24.257812 13.429688 23.976562 13.210938 C 23.695312 12.988281 23.386719 12.828125 23.042969 12.722656 C 22.699219 12.621094 22.351562 12.585938 21.996094 12.613281 C 21.640625 12.644531 21.300781 12.738281 20.980469 12.894531 C 20.660156 13.054688 20.378906 13.265625 20.140625 13.53125 C 19.898438 13.792969 19.71875 14.09375 19.589844 14.429688 C 19.464844 14.761719 19.402344 15.109375 19.40625 15.464844 L 19.40625 24.40625 C 19.40625 24.59375 19.371094 24.773438 19.300781 24.945312 C 19.230469 25.117188 19.128906 25.273438 18.996094 25.402344 C 18.863281 25.535156 18.710938 25.636719 18.535156 25.710938 C 18.363281 25.78125 18.183594 25.816406 17.996094 25.816406 L 17.054688 25.816406 C 16.867188 25.816406 16.6875 25.78125 16.515625 25.710938 C 16.34375 25.636719 16.191406 25.535156 16.058594 25.402344 C 15.925781 25.273438 15.824219 25.117188 15.75 24.945312 C 15.679688 24.773438 15.644531 24.59375 15.644531 24.40625 L 15.644531 15.636719 C 15.640625 15.210938 15.675781 14.789062 15.75 14.371094 C 15.824219 13.953125 15.9375 13.546875 16.089844 13.152344 C 16.242188 12.753906 16.433594 12.378906 16.65625 12.015625 C 16.882812 11.65625 17.136719 11.320312 17.425781 11.007812 C 17.714844 10.699219 18.03125 10.417969 18.371094 10.164062 C 18.714844 9.914062 19.078125 9.695312 19.460938 9.515625 C 19.84375 9.332031 20.238281 9.1875 20.652344 9.082031 C 21.0625 8.972656 21.476562 8.90625 21.902344 8.878906 C 22.3125 8.871094 22.71875 8.90625 23.121094 8.976562 C 23.523438 9.046875 23.917969 9.152344 24.300781 9.296875 C 24.683594 9.441406 25.050781 9.617188 25.398438 9.832031 C 25.75 10.042969 26.078125 10.285156 26.382812 10.558594 C 26.6875 10.832031 26.964844 11.128906 27.210938 11.457031 C 27.460938 11.78125 27.679688 12.125 27.863281 12.488281 C 28.046875 12.855469 28.199219 13.234375 28.3125 13.628906 C 28.425781 14.019531 28.503906 14.421875 28.542969 14.828125 C 28.582031 15.234375 28.585938 15.640625 28.546875 16.050781 C 28.511719 16.457031 28.4375 16.859375 28.328125 17.253906 C 28.214844 17.644531 28.070312 18.027344 27.886719 18.394531 C 27.707031 18.757812 27.492188 19.105469 27.246094 19.433594 C 27 19.757812 26.722656 20.0625 26.421875 20.335938 C 26.117188 20.613281 25.792969 20.855469 25.445312 21.070312 C 25.097656 21.285156 24.730469 21.46875 24.347656 21.613281 C 23.96875 21.761719 23.574219 21.871094 23.171875 21.945312 Z M 23.171875 21.945312 " fill-opacity="1" fill-rule="nonzero"/></g><g fill="#5271ff" fill-opacity="1"><g transform="translate(39.330273, 24.010629)"><g><path d="M 9.390625 -18.828125 C 10.660156 -18.828125 11.789062 -18.546875 12.78125 -17.984375 C 13.78125 -17.421875 14.578125 -16.648438 15.171875 -15.671875 C 15.765625 -14.691406 16.0625 -13.582031 16.0625 -12.34375 C 16.0625 -11.113281 15.769531 -10.007812 15.1875 -9.03125 C 14.601562 -8.050781 13.804688 -7.28125 12.796875 -6.71875 C 11.796875 -6.164062 10.660156 -5.890625 9.390625 -5.890625 L 6.25 -5.890625 L 6.25 0 L 2.15625 0 L 2.15625 -18.828125 Z M 9.234375 -9.65625 C 10.035156 -9.65625 10.679688 -9.910156 11.171875 -10.421875 C 11.671875 -10.929688 11.921875 -11.570312 11.921875 -12.34375 C 11.921875 -13.132812 11.671875 -13.785156 11.171875 -14.296875 C 10.679688 -14.804688 10.035156 -15.0625 9.234375 -15.0625 L 6.25 -15.0625 L 6.25 -9.65625 Z M 9.234375 -9.65625 "/></g></g></g><g fill="#5271ff" fill-opacity="1"><g transform="translate(55.444434, 24.010629)"><g><path d="M 13.75 -14.5625 L 16.6875 -14.5625 L 16.6875 -0.03125 L 13.59375 -0.03125 L 13.265625 -1.3125 C 12.640625 -0.78125 11.925781 -0.359375 11.125 -0.046875 C 10.320312 0.253906 9.46875 0.40625 8.5625 0.40625 C 7.101562 0.40625 5.800781 0.0703125 4.65625 -0.59375 C 3.507812 -1.269531 2.601562 -2.1875 1.9375 -3.34375 C 1.269531 -4.5 0.9375 -5.816406 0.9375 -7.296875 C 0.9375 -8.742188 1.269531 -10.046875 1.9375 -11.203125 C 2.601562 -12.359375 3.507812 -13.269531 4.65625 -13.9375 C 5.800781 -14.601562 7.101562 -14.9375 8.5625 -14.9375 C 9.488281 -14.9375 10.351562 -14.773438 11.15625 -14.453125 C 11.96875 -14.140625 12.6875 -13.707031 13.3125 -13.15625 Z M 8.875 -3.3125 C 9.632812 -3.3125 10.3125 -3.476562 10.90625 -3.8125 C 11.507812 -4.15625 11.976562 -4.628906 12.3125 -5.234375 C 12.65625 -5.835938 12.828125 -6.523438 12.828125 -7.296875 C 12.828125 -8.046875 12.65625 -8.71875 12.3125 -9.3125 C 11.976562 -9.914062 11.507812 -10.394531 10.90625 -10.75 C 10.3125 -11.101562 9.632812 -11.28125 8.875 -11.28125 C 8.101562 -11.28125 7.421875 -11.101562 6.828125 -10.75 C 6.242188 -10.394531 5.78125 -9.914062 5.4375 -9.3125 C 5.09375 -8.71875 4.921875 -8.046875 4.921875 -7.296875 C 4.921875 -6.523438 5.09375 -5.84375 5.4375 -5.25 C 5.78125 -4.65625 6.242188 -4.179688 6.828125 -3.828125 C 7.421875 -3.484375 8.101562 -3.3125 8.875 -3.3125 Z M 8.875 -3.3125 "/></g></g></g><g fill="#5271ff" fill-opacity="1"><g transform="translate(73.387917, 24.010629)"><g><path d="M 1.890625 0 L 1.890625 -19.78125 L 5.8125 -19.78125 L 5.8125 0 Z M 1.890625 0 "/></g></g></g><g fill="#5271ff" fill-opacity="1"><g transform="translate(80.463065, 24.010629)"><g><path d="M 8.53125 0.40625 C 7.164062 0.40625 5.96875 0.132812 4.9375 -0.40625 C 3.90625 -0.957031 3.101562 -1.722656 2.53125 -2.703125 C 1.96875 -3.679688 1.6875 -4.828125 1.6875 -6.140625 L 1.6875 -14.53125 L 5.625 -14.53125 L 5.625 -6.59375 C 5.625 -5.550781 5.878906 -4.738281 6.390625 -4.15625 C 6.898438 -3.570312 7.613281 -3.28125 8.53125 -3.28125 C 9.445312 -3.28125 10.15625 -3.578125 10.65625 -4.171875 C 11.15625 -4.765625 11.40625 -5.570312 11.40625 -6.59375 L 11.40625 -14.53125 L 15.34375 -14.53125 L 15.34375 -6.140625 C 15.34375 -4.828125 15.054688 -3.679688 14.484375 -2.703125 C 13.921875 -1.722656 13.128906 -0.957031 12.109375 -0.40625 C 11.085938 0.132812 9.894531 0.40625 8.53125 0.40625 Z M 8.53125 0.40625 "/></g></g></g><g fill="#5271ff" fill-opacity="1"><g transform="translate(96.873149, 24.010629)"><g><path d="M 18.75 -14.53125 L 22.65625 -14.53125 L 17.890625 0 L 14.75 0 L 11.4375 -7.5 L 8.203125 0 L 5.0625 0 L 0.234375 -14.53125 L 4.25 -14.53125 L 7.109375 -5.859375 L 10.890625 -14.421875 L 12 -14.421875 L 15.90625 -5.84375 Z M 18.75 -14.53125 "/></g></g></g><g fill="#5271ff" fill-opacity="1"><g transform="translate(119.174726, 24.010629)"><g><path d="M 13.75 -14.5625 L 16.6875 -14.5625 L 16.6875 -0.03125 L 13.59375 -0.03125 L 13.265625 -1.3125 C 12.640625 -0.78125 11.925781 -0.359375 11.125 -0.046875 C 10.320312 0.253906 9.46875 0.40625 8.5625 0.40625 C 7.101562 0.40625 5.800781 0.0703125 4.65625 -0.59375 C 3.507812 -1.269531 2.601562 -2.1875 1.9375 -3.34375 C 1.269531 -4.5 0.9375 -5.816406 0.9375 -7.296875 C 0.9375 -8.742188 1.269531 -10.046875 1.9375 -11.203125 C 2.601562 -12.359375 3.507812 -13.269531 4.65625 -13.9375 C 5.800781 -14.601562 7.101562 -14.9375 8.5625 -14.9375 C 9.488281 -14.9375 10.351562 -14.773438 11.15625 -14.453125 C 11.96875 -14.140625 12.6875 -13.707031 13.3125 -13.15625 Z M 8.875 -3.3125 C 9.632812 -3.3125 10.3125 -3.476562 10.90625 -3.8125 C 11.507812 -4.15625 11.976562 -4.628906 12.3125 -5.234375 C 12.65625 -5.835938 12.828125 -6.523438 12.828125 -7.296875 C 12.828125 -8.046875 12.65625 -8.71875 12.3125 -9.3125 C 11.976562 -9.914062 11.507812 -10.394531 10.90625 -10.75 C 10.3125 -11.101562 9.632812 -11.28125 8.875 -11.28125 C 8.101562 -11.28125 7.421875 -11.101562 6.828125 -10.75 C 6.242188 -10.394531 5.78125 -9.914062 5.4375 -9.3125 C 5.09375 -8.71875 4.921875 -8.046875 4.921875 -7.296875 C 4.921875 -6.523438 5.09375 -5.84375 5.4375 -5.25 C 5.78125 -4.65625 6.242188 -4.179688 6.828125 -3.828125 C 7.421875 -3.484375 8.101562 -3.3125 8.875 -3.3125 Z M 8.875 -3.3125 "/></g></g></g><g fill="#5271ff" fill-opacity="1"><g transform="translate(137.118213, 24.010629)"><g><path d="M 13.609375 -14.53125 L 16.171875 -14.53125 L 16.171875 -1.6875 C 16.171875 -0.164062 15.867188 1.140625 15.265625 2.234375 C 14.671875 3.328125 13.816406 4.171875 12.703125 4.765625 C 11.585938 5.359375 10.269531 5.65625 8.75 5.65625 C 6.769531 5.65625 5.117188 5.175781 3.796875 4.21875 C 2.484375 3.269531 1.664062 1.972656 1.34375 0.328125 L 5.25 0.328125 C 5.457031 0.972656 5.898438 1.457031 6.578125 1.78125 C 7.253906 2.113281 7.945312 2.28125 8.65625 2.28125 C 9.664062 2.28125 10.523438 1.976562 11.234375 1.375 C 11.941406 0.78125 12.296875 -0.0507812 12.296875 -1.125 L 12.296875 -1.671875 C 11.722656 -1.253906 11.085938 -0.929688 10.390625 -0.703125 C 9.691406 -0.484375 8.945312 -0.375 8.15625 -0.375 C 6.8125 -0.375 5.59375 -0.695312 4.5 -1.34375 C 3.40625 -1.988281 2.535156 -2.859375 1.890625 -3.953125 C 1.253906 -5.046875 0.9375 -6.273438 0.9375 -7.640625 C 0.9375 -9.003906 1.253906 -10.238281 1.890625 -11.34375 C 2.535156 -12.445312 3.40625 -13.320312 4.5 -13.96875 C 5.59375 -14.613281 6.8125 -14.9375 8.15625 -14.9375 C 9.101562 -14.9375 9.988281 -14.773438 10.8125 -14.453125 C 11.632812 -14.128906 12.363281 -13.671875 13 -13.078125 Z M 8.609375 -3.875 C 9.679688 -3.875 10.566406 -4.226562 11.265625 -4.9375 C 11.972656 -5.644531 12.328125 -6.546875 12.328125 -7.640625 C 12.328125 -8.710938 11.976562 -9.601562 11.28125 -10.3125 C 10.59375 -11.019531 9.703125 -11.375 8.609375 -11.375 C 7.546875 -11.375 6.664062 -11.019531 5.96875 -10.3125 C 5.269531 -9.601562 4.921875 -8.710938 4.921875 -7.640625 C 4.921875 -6.546875 5.265625 -5.644531 5.953125 -4.9375 C 6.648438 -4.226562 7.535156 -3.875 8.609375 -3.875 Z M 8.609375 -3.875 "/></g></g></g><g fill="#5271ff" fill-opacity="1"><g transform="translate(154.550564, 24.010629)"><g><path d="M 13.75 -14.5625 L 16.6875 -14.5625 L 16.6875 -0.03125 L 13.59375 -0.03125 L 13.265625 -1.3125 C 12.640625 -0.78125 11.925781 -0.359375 11.125 -0.046875 C 10.320312 0.253906 9.46875 0.40625 8.5625 0.40625 C 7.101562 0.40625 5.800781 0.0703125 4.65625 -0.59375 C 3.507812 -1.269531 2.601562 -2.1875 1.9375 -3.34375 C 1.269531 -4.5 0.9375 -5.816406 0.9375 -7.296875 C 0.9375 -8.742188 1.269531 -10.046875 1.9375 -11.203125 C 2.601562 -12.359375 3.507812 -13.269531 4.65625 -13.9375 C 5.800781 -14.601562 7.101562 -14.9375 8.5625 -14.9375 C 9.488281 -14.9375 10.351562 -14.773438 11.15625 -14.453125 C 11.96875 -14.140625 12.6875 -13.707031 13.3125 -13.15625 Z M 8.875 -3.3125 C 9.632812 -3.3125 10.3125 -3.476562 10.90625 -3.8125 C 11.507812 -4.15625 11.976562 -4.628906 12.3125 -5.234375 C 12.65625 -5.835938 12.828125 -6.523438 12.828125 -7.296875 C 12.828125 -8.046875 12.65625 -8.71875 12.3125 -9.3125 C 11.976562 -9.914062 11.507812 -10.394531 10.90625 -10.75 C 10.3125 -11.101562 9.632812 -11.28125 8.875 -11.28125 C 8.101562 -11.28125 7.421875 -11.101562 6.828125 -10.75 C 6.242188 -10.394531 5.78125 -9.914062 5.4375 -9.3125 C 5.09375 -8.71875 4.921875 -8.046875 4.921875 -7.296875 C 4.921875 -6.523438 5.09375 -5.84375 5.4375 -5.25 C 5.78125 -4.65625 6.242188 -4.179688 6.828125 -3.828125 C 7.421875 -3.484375 8.101562 -3.3125 8.875 -3.3125 Z M 8.875 -3.3125 "/></g></g></g><g fill="#5271ff" fill-opacity="1"><g transform="translate(172.49405, 24.010629)"><g><path d="M 10.171875 -14.875 C 11.816406 -14.875 13.117188 -14.320312 14.078125 -13.21875 C 15.046875 -12.113281 15.53125 -10.640625 15.53125 -8.796875 L 15.53125 0 L 11.59375 0 L 11.59375 -8.171875 C 11.59375 -10.347656 10.75 -11.4375 9.0625 -11.4375 C 8.0625 -11.4375 7.269531 -11.09375 6.6875 -10.40625 C 6.101562 -9.726562 5.8125 -8.804688 5.8125 -7.640625 L 5.8125 0 L 1.890625 0 L 1.890625 -14.53125 L 4.578125 -14.53125 L 5.359375 -12.734375 C 5.890625 -13.390625 6.578125 -13.910156 7.421875 -14.296875 C 8.265625 -14.679688 9.179688 -14.875 10.171875 -14.875 Z M 10.171875 -14.875 "/></g></g></g></svg>